<svg width="24" height="24" viewBox="0 0 24 24" fill="none" xmlns="http://www.w3.org/2000/svg">
<path d="M20.3862 2.18164H3.61346C2.82391 2.18164 2.18164 2.89528 2.18164 3.77255V6.04528C2.18164 6.92255 2.82391 7.63619 3.61346 7.63619H20.3862C21.1757 7.63619 21.818 6.92255 21.818 6.04528V3.77255C21.818 2.89528 21.1757 2.18164 20.3862 2.18164Z" fill="currentColor"/>
<path d="M3.57007 21.8175H9.52048C10.2861 21.8175 10.9089 21.1752 10.9089 20.3857V10.1584C10.9089 9.36884 10.2861 8.72656 9.52048 8.72656H3.57007C2.80445 8.72656 2.18164 9.36884 2.18164 10.1584V20.3857C2.18164 21.1752 2.80445 21.8175 3.57007 21.8175Z" fill="currentColor"/>
<path d="M20.2562 8.72656H13.562C12.7007 8.72656 12 9.33825 12 10.0902V12.8175C12 13.5694 12.7007 14.1811 13.562 14.1811H20.2562C21.1175 14.1811 21.8182 13.5694 21.8182 12.8175V10.0902C21.8182 9.33825 21.1175 8.72656 20.2562 8.72656Z" fill="currentColor"/>
<path d="M20.2562 15.2734H13.562C12.7007 15.2734 12 16.0075 12 16.9098V20.1825C12 21.0849 12.7007 21.8189 13.562 21.8189H20.2562C21.1175 21.8189 21.8182 21.0849 21.8182 20.1825V16.9098C21.8182 16.0075 21.1175 15.2734 20.2562 15.2734Z" fill="currentColor"/>
</svg>
