<svg width="16" height="16" viewBox="0 0 16 16" fill="none" xmlns="http://www.w3.org/2000/svg">
<path d="M10.666 1.33301C12.5069 1.33301 13.9998 2.82522 14 4.66602C14 6.50696 12.507 8 10.666 8C10.1551 7.99995 9.67101 7.88417 9.23828 7.67871L7.05176 10.7402C7.22537 10.9994 7.32768 11.3102 7.33203 11.6445L11.4844 12.3086C11.7472 11.7335 12.3264 11.333 13 11.333C13.9203 11.3332 14.666 12.0796 14.666 13C14.6658 13.9202 13.9202 14.6658 13 14.666C12.3127 14.666 11.7227 14.2502 11.4678 13.6562L6.77734 12.9053C6.48231 13.1699 6.09357 13.333 5.66602 13.333C4.74569 13.3328 4 12.5864 4 11.666C4.00018 10.7458 4.7458 10.0002 5.66602 10C5.75436 10 5.84116 10.0082 5.92578 10.0215L8.17188 6.87695C7.92546 6.59909 7.72524 6.27966 7.58203 5.93066L4.57031 6.21777C4.34248 6.86673 3.72677 7.33287 3 7.33301C2.07953 7.33301 1.33301 6.58649 1.33301 5.66602C1.33318 4.74569 2.07963 4 3 4C3.63917 4.00012 4.19315 4.36046 4.47266 4.88867L7.33398 4.61523C7.3613 2.79796 8.84228 1.33318 10.666 1.33301ZM12.4268 3.73145C12.2777 3.56183 12.0196 3.54768 11.8506 3.7002L10.3896 5.01855L9.84961 4.4043C9.70052 4.2347 9.44242 4.22049 9.27344 4.37305C9.10463 4.5256 9.08853 4.7873 9.2373 4.95703L10.0947 5.93262C10.2174 6.07215 10.4304 6.08449 10.5684 5.95996L12.3906 4.31445C12.5593 4.16189 12.5755 3.90113 12.4268 3.73145Z" fill="currentColor"/>
</svg>
