<svg width="16" height="16" viewBox="0 0 16 16" fill="none" xmlns="http://www.w3.org/2000/svg">
<path d="M6.33337 11.0007L11 8.00065L6.33337 5.00065V11.0007ZM8.00004 14.6673C7.07782 14.6673 6.21115 14.4923 5.40004 14.1423C4.58893 13.7923 3.88337 13.3173 3.28337 12.7173C2.68337 12.1173 2.20837 11.4118 1.85837 10.6007C1.50837 9.78954 1.33337 8.92287 1.33337 8.00065C1.33337 7.07843 1.50837 6.21176 1.85837 5.40065C2.20837 4.58954 2.68337 3.88398 3.28337 3.28398C3.88337 2.68398 4.58893 2.20898 5.40004 1.85898C6.21115 1.50898 7.07782 1.33398 8.00004 1.33398C8.92226 1.33398 9.78893 1.50898 10.6 1.85898C11.4112 2.20898 12.1167 2.68398 12.7167 3.28398C13.3167 3.88398 13.7917 4.58954 14.1417 5.40065C14.4917 6.21176 14.6667 7.07843 14.6667 8.00065C14.6667 8.92287 14.4917 9.78954 14.1417 10.6007C13.7917 11.4118 13.3167 12.1173 12.7167 12.7173C12.1167 13.3173 11.4112 13.7923 10.6 14.1423C9.78893 14.4923 8.92226 14.6673 8.00004 14.6673ZM8.00004 13.334C9.48893 13.334 10.75 12.8173 11.7834 11.784C12.8167 10.7507 13.3334 9.48954 13.3334 8.00065C13.3334 6.51176 12.8167 5.25065 11.7834 4.21732C10.75 3.18398 9.48893 2.66732 8.00004 2.66732C6.51115 2.66732 5.25004 3.18398 4.21671 4.21732C3.18337 5.25065 2.66671 6.51176 2.66671 8.00065C2.66671 9.48954 3.18337 10.7507 4.21671 11.784C5.25004 12.8173 6.51115 13.334 8.00004 13.334Z" fill="white"/>
</svg>
