<svg width="30" height="30" viewBox="0 0 30 30" fill="none" xmlns="http://www.w3.org/2000/svg">
<path d="M3.29126 29.6214C2.38616 29.6214 1.61135 29.2991 0.966808 28.6546C0.322269 28.01 0 27.2352 0 26.3301V3.29126C0 2.38616 0.322269 1.61135 0.966808 0.966808C1.61135 0.322269 2.38616 0 3.29126 0H26.3301C27.2352 0 28.01 0.322269 28.6546 0.966808C29.2991 1.61135 29.6214 2.38616 29.6214 3.29126V26.3301C29.6214 27.2352 29.2991 28.01 28.6546 28.6546C28.01 29.2991 27.2352 29.6214 26.3301 29.6214H3.29126ZM6.58252 23.0388H23.0388C23.368 23.0388 23.6148 22.888 23.7794 22.5863C23.9439 22.2846 23.9165 21.9966 23.6971 21.7223L19.1716 15.6746C19.007 15.4552 18.7876 15.3455 18.5133 15.3455C18.2391 15.3455 18.0197 15.4552 17.8551 15.6746L13.5765 21.3932L10.532 17.3203C10.3675 17.1008 10.1481 16.9911 9.87379 16.9911C9.59951 16.9911 9.3801 17.1008 9.21553 17.3203L5.92427 21.7223C5.70485 21.9966 5.67743 22.2846 5.84199 22.5863C6.00655 22.888 6.2534 23.0388 6.58252 23.0388Z" fill="#D9D8D8"/>
</svg>
