<svg width="24" height="24" viewBox="0 0 24 24" fill="none" xmlns="http://www.w3.org/2000/svg">
<path d="M21.4481 20.929H20.0574C20.0574 20.9076 20.0795 20.8862 20.0795 20.8648C20.0574 19.4726 18.9095 18.3588 17.4746 18.3802C16.4371 18.3802 15.5099 19.0013 15.1126 19.9224C14.4283 20.008 13.7881 20.3722 13.3907 20.929H11.2274C10.8742 20.3079 10.2119 19.9438 9.50552 19.9438H9.48344C9.08609 18.83 7.82781 18.2303 6.67991 18.6372C6.30464 18.7657 5.95143 19.0013 5.68653 19.3012L5.26711 19.2584C4.22958 19.2584 3.30243 19.9438 3.03753 20.929H2.55188C2.24283 20.929 2 21.1647 2 21.4645C2 21.7644 2.24283 22 2.55188 22H21.4481C21.7572 22 22 21.7644 22 21.4645C22 21.1647 21.7572 20.929 21.4481 20.929Z" fill="currentColor"/>
<path d="M17.0337 9.96252C16.6584 9.59839 16.1948 9.31995 15.6871 9.14859C15.6209 7.45649 15.1131 5.80723 14.186 4.35074C14.1198 4.2008 12.9719 2.70147 12.3979 2.14458C12.1772 1.95181 11.824 1.95181 11.6032 2.14458C9.52814 4.17938 8.40232 6.55689 8.31402 9.14859C7.80629 9.31995 7.34271 9.59839 6.96744 9.96252C5.57671 11.2048 5.46633 13.3039 6.74669 14.6747C6.83499 14.7818 6.96744 14.8461 7.12196 14.8461H7.14404C7.27649 14.8461 7.43101 14.8032 7.51931 14.6961L9.02042 13.3681C9.32947 14.1392 9.70475 14.8889 10.1904 15.5743C10.6319 16.2169 11.7577 16.2811 12.0889 16.2811H12.1109C12.5745 16.2811 13.3692 16.1954 13.7445 15.6814C14.2522 14.9746 14.6716 14.1821 14.9807 13.3681L16.4818 14.6961C16.5701 14.8032 16.7246 14.8461 16.8571 14.8461H16.8791C17.0337 14.8461 17.1661 14.7818 17.2544 14.6747C18.5348 13.3039 18.4244 11.2048 17.0337 9.96252ZM12.0006 10.2838C10.963 10.2624 10.1242 9.44846 10.1242 8.44177C10.1242 7.43507 10.963 6.62115 12.0006 6.62115C13.0381 6.62115 13.8769 7.43507 13.8769 8.44177C13.8769 9.44846 13.0381 10.2624 12.0006 10.2838Z" fill="currentColor"/>
<path d="M12.551 17.0518H11.4473V19.5578H12.551V17.0518Z" fill="currentColor"/>
<path d="M14.3616 16.6455H13.2578V18.9373H14.3616V16.6455Z" fill="currentColor"/>
<path d="M10.7424 16.6455H9.63867V18.7446H10.7424V16.6455Z" fill="currentColor"/>
</svg>
