<svg width="98" height="98" viewBox="0 0 98 98" fill="none" xmlns="http://www.w3.org/2000/svg">
<g clip-path="url(#clip0_16543_10482)">
<path d="M69.7218 37.991H49.8871L61.6935 16.293H43.9053L28.2793 51.5289H46.424L42.0163 77.6088L69.7218 37.991Z" fill="white"/>
<path d="M83.6484 14.3516C74.3933 5.09696 62.0884 0 49 0C35.9116 0 23.6067 5.09696 14.3516 14.3516C5.09696 23.6067 0 35.9116 0 49C0 62.0884 5.09696 74.3933 14.3516 83.6484C23.6067 92.903 35.9116 98 49 98C54.3439 98 59.5991 97.1444 64.6197 95.457L62.7904 90.014C58.3605 91.5029 53.7207 92.2578 49 92.2578C25.1475 92.2578 5.74219 72.8525 5.74219 49C5.74219 25.1475 25.1475 5.74219 49 5.74219C72.8525 5.74219 92.2578 25.1475 92.2578 49C92.2578 54.7294 91.1565 60.2939 88.9844 65.5388L94.2896 67.736C96.7518 61.7907 98 55.4871 98 49C98 35.9116 92.903 23.6067 83.6484 14.3516Z" fill="white"/>
<path d="M82.7935 61.7393L77.9144 61.7442L67.9961 87.7862L73.3622 89.8298L75.7203 83.6384H84.9206L87.2554 89.8249L92.6276 87.7975L82.7935 61.7393ZM77.9071 77.8964L80.3414 71.505L82.7535 77.8964H77.9071Z" fill="white"/>
</g>
<defs>
<clipPath id="clip0_16543_10482">
<rect width="98" height="98" fill="white"/>
</clipPath>
</defs>
</svg>
