<svg width="16" height="16" viewBox="0 0 16 16" fill="none" xmlns="http://www.w3.org/2000/svg">
<g clip-path="url(#clip0_40000036_2035)">
<path d="M15.531 14.125H1.87476V0.46875C1.87476 0.209717 1.66504 0 1.40601 0H0.468506C0.209473 0 -0.000244141 0.209717 -0.000244141 0.46875C-0.000244141 0.727783 0.209473 0.9375 0.468506 0.9375H0.937256V2.84375H0.468506C0.209473 2.84375 -0.000244141 3.05347 -0.000244141 3.3125C-0.000244141 3.57153 0.209473 3.78125 0.468506 3.78125H0.937256V5.65625H0.468506C0.209473 5.65625 -0.000244141 5.86597 -0.000244141 6.125C-0.000244141 6.38403 0.209473 6.59375 0.468506 6.59375H0.937256V8.46875H0.468506C0.209473 8.46875 -0.000244141 8.67847 -0.000244141 8.9375C-0.000244141 9.19653 0.209473 9.40625 0.468506 9.40625H0.937256V11.2812H0.468506C0.209473 11.2812 -0.000244141 11.491 -0.000244141 11.75C-0.000244141 12.009 0.209473 12.2188 0.468506 12.2188H0.937256V14.125H0.468506C0.209473 14.125 -0.000244141 14.3347 -0.000244141 14.5938C-0.000244141 14.8528 0.209473 15.0625 0.468506 15.0625H0.937256V15.5312C0.937256 15.7903 1.14697 16 1.40601 16C1.66504 16 1.87476 15.7903 1.87476 15.5312V15.0625H3.78101V15.5312C3.78101 15.7903 3.99072 16 4.24976 16C4.50879 16 4.71851 15.7903 4.71851 15.5312V15.0625H6.59351V15.5312C6.59351 15.7903 6.80322 16 7.06226 16C7.32129 16 7.53101 15.7903 7.53101 15.5312V15.0625H9.40601V15.5312C9.40601 15.7903 9.61572 16 9.87476 16C10.1338 16 10.3435 15.7903 10.3435 15.5312V15.0625H12.2498V15.5312C12.2498 15.7903 12.4595 16 12.7185 16C12.9775 16 13.1873 15.7903 13.1873 15.5312V15.0625H15.0623V15.5312C15.0623 15.7903 15.272 16 15.531 16C15.79 16 15.9998 15.7903 15.9998 15.5312V14.5938C15.9998 14.3347 15.79 14.125 15.531 14.125Z" fill="currentColor"/>
<path d="M14.5936 1.90625C13.8182 1.90625 13.1874 2.53711 13.1874 3.3125C13.1874 3.72021 13.3646 4.08472 13.6427 4.3418L11.8701 8.47778C11.8401 8.47583 11.8116 8.46875 11.7811 8.46875C11.5647 8.46875 11.3308 8.52197 11.1475 8.60974L9.26514 6.72742C9.35291 6.54407 9.40613 6.34143 9.40613 6.125C9.40613 5.34961 8.77527 4.71875 7.99988 4.71875C7.22449 4.71875 6.59363 5.34961 6.59363 6.125C6.59363 6.39673 6.67456 6.64831 6.80847 6.86352L4.70776 9.48926C4.56348 9.43921 4.41101 9.40625 4.24988 9.40625C3.47449 9.40625 2.81238 10.0371 2.81238 10.8125C2.81238 11.5879 3.47449 12.2187 4.24988 12.2187C5.02527 12.2187 5.65613 11.5879 5.65613 10.8125C5.65613 10.5408 5.5752 10.2892 5.44128 10.074L7.54199 7.44824C7.68628 7.49829 7.83875 7.53125 7.99988 7.53125C8.21631 7.53125 8.41895 7.47803 8.60229 7.39026L10.4846 9.27258C10.3969 9.45593 10.3436 9.65857 10.3436 9.875C10.3436 10.6504 11.0057 11.2812 11.7811 11.2812C12.5565 11.2812 13.1874 10.6504 13.1874 9.875C13.1874 9.46728 13.0101 9.10278 12.7321 8.8457L14.5046 4.70972C14.5345 4.71167 14.5631 4.71875 14.5936 4.71875C15.369 4.71875 15.9999 4.08789 15.9999 3.3125C15.9999 2.53699 15.369 1.90625 14.5936 1.90625Z" fill="currentColor"/>
</g>
<defs>
<clipPath id="clip0_40000036_2035">
<rect width="16" height="16" fill="currentColor"/>
</clipPath>
</defs>
</svg>
