<svg width="16" height="16" viewBox="0 0 16 16" fill="none" xmlns="http://www.w3.org/2000/svg">
<path fill-rule="evenodd" clip-rule="evenodd" d="M13.268 2.73276C13.0359 2.50055 12.7602 2.31634 12.4569 2.19066C12.1535 2.06498 11.8284 2.0003 11.5 2.0003C11.1717 2.0003 10.8465 2.06498 10.5432 2.19066C10.2398 2.31634 9.96419 2.50055 9.73203 2.73276L6.73203 5.73276C6.449 6.01554 6.23798 6.36212 6.11668 6.74337C5.99539 7.12462 5.96737 7.52942 6.03497 7.92375C6.10258 8.31808 6.26383 8.69043 6.5052 9.00951C6.74656 9.32858 7.06098 9.58508 7.42203 9.75743C7.53757 9.81697 7.62539 9.91916 7.66686 10.0423C7.70833 10.1655 7.70021 10.3 7.6442 10.4173C7.5882 10.5346 7.48872 10.6255 7.36685 10.6707C7.24498 10.7159 7.11031 10.7118 6.99137 10.6594C6.48611 10.4181 6.04613 10.059 5.70837 9.61241C5.37062 9.16581 5.14495 8.64468 5.05031 8.09279C4.95568 7.5409 4.99483 6.97436 5.1645 6.44074C5.33416 5.90712 5.62938 5.42199 6.02536 5.0261L9.02536 2.0261C9.3488 1.69419 9.73493 1.42981 10.1613 1.24832C10.5878 1.06682 11.046 0.971821 11.5094 0.968823C11.9728 0.965826 12.4322 1.05489 12.861 1.23086C13.2897 1.40682 13.6792 1.66618 14.0069 1.99388C14.3346 2.32158 14.594 2.71109 14.7699 3.13982C14.9459 3.56855 15.035 4.02796 15.032 4.49139C15.029 4.95481 14.934 5.41303 14.7525 5.83945C14.571 6.26587 14.3066 6.652 13.9747 6.97543L12.8034 8.14676C12.7576 8.19589 12.7024 8.23529 12.6411 8.26262C12.5797 8.28995 12.5135 8.30464 12.4464 8.30583C12.3792 8.30701 12.3126 8.29466 12.2503 8.26951C12.188 8.24437 12.1315 8.20693 12.084 8.15946C12.0365 8.11198 11.9991 8.05542 11.9739 7.99316C11.9488 7.9309 11.9365 7.86422 11.9376 7.79708C11.9388 7.72995 11.9535 7.66374 11.9808 7.60241C12.0082 7.54107 12.0476 7.48587 12.0967 7.4401L13.268 6.26876C13.5002 6.03661 13.6845 5.76098 13.8101 5.45762C13.9358 5.15427 14.0005 4.82912 14.0005 4.50076C14.0005 4.1724 13.9358 3.84726 13.8101 3.5439C13.6845 3.24055 13.5002 2.96492 13.268 2.73276ZM8.34203 5.57743C8.39925 5.45783 8.50162 5.36586 8.62664 5.32173C8.75165 5.2776 8.88908 5.28492 9.0087 5.3421C9.51396 5.58345 9.95393 5.9425 10.2917 6.38911C10.6294 6.83572 10.8551 7.35685 10.9497 7.90874C11.0444 8.46063 11.0052 9.02717 10.8356 9.56079C10.6659 10.0944 10.3707 10.5795 9.9747 10.9754L6.9747 13.9754C6.65127 14.3073 6.26514 14.5717 5.83872 14.7532C5.4123 14.9347 4.95408 15.0297 4.49066 15.0327C4.02723 15.0357 3.56782 14.9466 3.13909 14.7707C2.71036 14.5947 2.32084 14.3354 1.99314 14.0077C1.66544 13.68 1.40609 13.2904 1.23012 12.8617C1.05416 12.433 0.965093 11.9736 0.968091 11.5101C0.971088 11.0467 1.06609 10.5885 1.24759 10.1621C1.42908 9.73566 1.69345 9.34953 2.02536 9.0261L3.1967 7.85476C3.24247 7.80564 3.29767 7.76624 3.35901 7.73891C3.42034 7.71158 3.48655 7.69689 3.55368 7.6957C3.62082 7.69452 3.6875 7.70687 3.74976 7.73202C3.81202 7.75716 3.86858 7.79459 3.91606 7.84207C3.96354 7.88955 4.00097 7.94611 4.02611 8.00837C4.05126 8.07062 4.06361 8.13731 4.06243 8.20445C4.06124 8.27158 4.04655 8.33779 4.01922 8.39912C3.99189 8.46046 3.95249 8.51566 3.90336 8.56143L2.73203 9.73276C2.49985 9.96494 2.31568 10.2406 2.19003 10.5439C2.06437 10.8473 1.9997 11.1724 1.9997 11.5008C1.9997 11.8291 2.06437 12.1542 2.19003 12.4576C2.31568 12.761 2.49985 13.0366 2.73203 13.2688C2.96421 13.5009 3.23984 13.6851 3.5432 13.8108C3.84655 13.9364 4.17168 14.0011 4.50003 14.0011C4.82838 14.0011 5.15351 13.9364 5.45687 13.8108C5.76022 13.6851 6.03585 13.5009 6.26803 13.2688L9.26803 10.2688C9.55106 9.98599 9.76208 9.63941 9.88338 9.25816C10.0047 8.8769 10.0327 8.47211 9.96509 8.07778C9.89749 7.68345 9.73623 7.3111 9.49487 6.99202C9.2535 6.67294 8.93909 6.41645 8.57803 6.2441C8.51875 6.21583 8.46563 6.17616 8.42169 6.12735C8.37775 6.07854 8.34385 6.02156 8.32193 5.95965C8.30002 5.89774 8.29051 5.83212 8.29396 5.76654C8.29741 5.70096 8.31374 5.6367 8.34203 5.57743Z" fill="white"/>
</svg>
