<svg width="27" height="27" viewBox="0 0 27 27" fill="none" xmlns="http://www.w3.org/2000/svg">
<path fill-rule="evenodd" clip-rule="evenodd" d="M6.32207 1.68555C5.15776 1.68555 4.21484 2.62958 4.21484 3.79277V23.1792C4.21484 24.3424 5.15888 25.2865 6.32207 25.2865H20.6512C21.8144 25.2865 22.7584 24.3424 22.7584 23.1792V14.3289C22.7584 13.2112 22.3144 12.1392 21.524 11.3488C20.7337 10.5585 19.6617 10.1144 18.544 10.1144H16.4367C15.8779 10.1144 15.3419 9.89244 14.9467 9.49725C14.5515 9.10207 14.3295 8.56609 14.3295 8.00722V5.9C14.3295 4.78225 13.8855 3.71029 13.0951 2.91993C12.3048 2.12957 11.2328 1.68555 10.1151 1.68555H6.32207ZM8.42929 16.8576C8.42929 16.634 8.5181 16.4196 8.67617 16.2616C8.83424 16.1035 9.04864 16.0147 9.27218 16.0147H17.7011C17.9246 16.0147 18.139 16.1035 18.2971 16.2616C18.4552 16.4196 18.544 16.634 18.544 16.8576C18.544 17.0811 18.4552 17.2955 18.2971 17.4536C18.139 17.6117 17.9246 17.7005 17.7011 17.7005H9.27218C9.04864 17.7005 8.83424 17.6117 8.67617 17.4536C8.5181 17.2955 8.42929 17.0811 8.42929 16.8576ZM9.27218 19.3862C9.04864 19.3862 8.83424 19.475 8.67617 19.6331C8.5181 19.7912 8.42929 20.0056 8.42929 20.2291C8.42929 20.4527 8.5181 20.6671 8.67617 20.8251C8.83424 20.9832 9.04864 21.072 9.27218 21.072H13.4866C13.7102 21.072 13.9246 20.9832 14.0826 20.8251C14.2407 20.6671 14.3295 20.4527 14.3295 20.2291C14.3295 20.0056 14.2407 19.7912 14.0826 19.6331C13.9246 19.475 13.7102 19.3862 13.4866 19.3862H9.27218Z" fill="white"/>
<path d="M14.5781 2.04102C15.507 3.11201 16.0175 4.48264 16.0155 5.90033V8.00755C16.0155 8.24019 16.2043 8.429 16.437 8.429H18.5442C19.9619 8.42703 21.3325 8.93752 22.4035 9.86641C21.9091 7.98587 20.924 6.27041 19.5491 4.89548C18.1741 3.52054 16.4587 2.53547 14.5781 2.04102Z" fill="white"/>
</svg>
