<svg width="98" height="98" viewBox="0 0 98 98" fill="none" xmlns="http://www.w3.org/2000/svg">
<path d="M91.1701 17.6093L80.3901 6.8293C77.4195 3.84336 72.5808 3.84336 69.6101 6.8293L60.9892 15.4502L54.512 21.9121L13.5664 62.873L13.5205 62.919C13.4133 63.0415 13.3214 63.1793 13.2601 63.3324C13.2601 63.3477 13.2295 63.3784 13.2295 63.3937C13.2142 63.409 13.2142 63.4243 13.1989 63.4396L5.02202 86.0868C4.19515 88.3377 4.57796 90.5427 6.01733 91.9821C6.9514 92.9162 8.22233 93.4062 9.60046 93.4062C10.3508 93.4062 11.1317 93.2683 11.9126 92.9774L34.5598 84.8005C34.5598 84.8005 34.5905 84.7852 34.6058 84.7852C34.6211 84.7699 34.6517 84.7546 34.667 84.7393C34.8201 84.678 34.958 84.5862 35.0805 84.479C35.0958 84.4637 35.1111 84.4483 35.1264 84.433L76.0873 43.4874L82.5492 37.0102L91.1701 28.3893C94.1561 25.4187 94.1561 20.5799 91.1701 17.6093ZM55.5992 25.1584L59.902 29.4612L21.1155 68.2477L16.8126 63.9602L55.5992 25.1584ZM18.6042 87.3118L10.6876 79.3952L15.2661 66.7471L31.2523 82.7334L18.6042 87.3118ZM34.0392 81.1868L29.7517 76.884L68.5383 38.0974L72.8411 42.4002L34.0392 81.1868ZM75.0001 40.2259L57.7736 22.9993L62.0764 18.6965L79.303 35.923L75.0001 40.2259Z" fill="#ffffff"/>
</svg>
