<svg width="20" height="20" viewBox="0 0 20 20" fill="none" xmlns="http://www.w3.org/2000/svg">
<path d="M10.0043 18.4579C8.8347 18.4579 7.73567 18.2359 6.7072 17.7917C5.67859 17.3475 4.78255 16.7443 4.01908 15.9819C3.2556 15.2197 2.65192 14.3244 2.20803 13.2961C1.76401 12.2677 1.54199 11.169 1.54199 9.99982C1.54199 8.83051 1.76401 7.73183 2.20803 6.70378C2.65192 5.67572 3.2556 4.78051 4.01908 4.01815C4.78255 3.25579 5.6788 2.65169 6.70783 2.20586C7.73671 1.76003 8.83609 1.53711 10.0059 1.53711C11.176 1.53711 12.2744 1.76003 13.3014 2.20586C14.3284 2.65169 15.2234 3.25544 15.9862 4.01711C16.7489 4.77864 17.3524 5.67377 17.7966 6.70252C18.2407 7.73114 18.4628 8.83023 18.4628 9.99982C18.4628 11.1694 18.2409 12.2684 17.797 13.2967C17.3532 14.3252 16.7498 15.2207 15.9866 15.9834C15.2232 16.7461 14.3274 17.3493 13.2991 17.7927C12.2707 18.2362 11.1725 18.4579 10.0043 18.4579ZM9.11408 17.0177V15.3144C8.62796 15.3144 8.21984 15.1348 7.8897 14.7756C7.5597 14.4165 7.3947 13.9952 7.3947 13.5119V12.6L3.15387 8.35919C3.08442 8.63697 3.03581 8.90961 3.00803 9.17711C2.98026 9.44461 2.96637 9.71634 2.96637 9.99232C2.96637 11.7854 3.54901 13.3533 4.71428 14.6961C5.8797 16.0388 7.3463 16.8127 9.11408 17.0177ZM15.1997 14.7827C15.8072 14.1226 16.2655 13.3806 16.5747 12.5569C16.8839 11.7331 17.0384 10.8782 17.0384 9.99211C17.0384 8.53058 16.639 7.20357 15.8401 6.01107C15.0411 4.81857 13.973 3.94621 12.6357 3.39398V3.76398C12.6357 4.24607 12.4689 4.66621 12.1351 5.0244C11.8012 5.38259 11.3933 5.56169 10.9114 5.56169H9.11408V7.36273C9.11408 7.59982 9.02033 7.79391 8.83283 7.94502C8.64533 8.09614 8.43303 8.17169 8.19595 8.17169H6.48324V9.99002H11.8243C12.059 9.99002 12.2529 10.0806 12.4059 10.2617C12.5591 10.4427 12.6357 10.6503 12.6357 10.8846V13.5119H13.5216C13.921 13.5119 14.2729 13.63 14.5772 13.8661C14.8815 14.1022 15.089 14.4077 15.1997 14.7827Z" fill="white"/>
</svg>
