<svg width="27" height="27" viewBox="0 0 27 27" fill="none" xmlns="http://www.w3.org/2000/svg">
<path fill-rule="evenodd" clip-rule="evenodd" d="M2.52844 2.52832C2.30489 2.52832 2.0905 2.61712 1.93242 2.7752C1.77435 2.93327 1.68555 3.14766 1.68555 3.37121C1.68555 3.59476 1.77435 3.80915 1.93242 3.96722C2.0905 4.1253 2.30489 4.2141 2.52844 4.2141H3.37133V16.0146C3.37133 16.9088 3.72654 17.7663 4.35883 18.3986C4.99112 19.0309 5.84869 19.3861 6.74289 19.3861H8.10275L6.78559 23.3342C6.71495 23.5464 6.73151 23.778 6.83162 23.978C6.93173 24.1781 7.1072 24.3301 7.31942 24.4008C7.53164 24.4714 7.76324 24.4548 7.96325 24.3547C8.16327 24.2546 8.31532 24.0791 8.38596 23.8669L8.75571 22.7577H18.2163L18.5872 23.8669C18.6639 24.071 18.8167 24.2374 19.0135 24.3311C19.2104 24.4249 19.4358 24.4388 19.6427 24.3699C19.8495 24.3009 20.0216 24.1545 20.1227 23.9614C20.2239 23.7683 20.2463 23.5435 20.1853 23.3342L18.8704 19.3861H20.2291C21.1233 19.3861 21.9809 19.0309 22.6132 18.3986C23.2455 17.7663 23.6007 16.9088 23.6007 16.0146V4.2141H24.4436C24.6671 4.2141 24.8815 4.1253 25.0396 3.96722C25.1977 3.80915 25.2865 3.59476 25.2865 3.37121C25.2865 3.14766 25.1977 2.93327 25.0396 2.7752C24.8815 2.61712 24.6671 2.52832 24.4436 2.52832H2.52844ZM9.87844 19.3861H17.0936L17.6555 21.0719H9.31651L9.87844 19.3861ZM18.9648 9.27706C19.0614 9.22212 19.1462 9.1486 19.2143 9.06075C19.2824 8.9729 19.3325 8.87244 19.3616 8.76517C19.3908 8.65789 19.3984 8.54591 19.384 8.43568C19.3697 8.32544 19.3337 8.21913 19.2781 8.12287C19.2226 8.0266 19.1485 7.94228 19.0602 7.87475C18.9719 7.80723 18.8711 7.75784 18.7636 7.72943C18.6562 7.70102 18.5441 7.69414 18.434 7.7092C18.3239 7.72426 18.2178 7.76095 18.1219 7.81717C16.5896 8.70415 15.234 9.86618 14.1232 11.2449L12.3959 9.51869C12.2378 9.36084 12.0236 9.27218 11.8002 9.27218C11.5769 9.27218 11.3626 9.36084 11.2046 9.51869L7.83302 12.8902C7.75021 12.9674 7.68379 13.0605 7.63772 13.1639C7.59165 13.2673 7.56688 13.3789 7.56488 13.492C7.56289 13.6052 7.5837 13.7176 7.6261 13.8226C7.66849 13.9275 7.73159 14.0229 7.81163 14.1029C7.89167 14.183 7.98701 14.2461 8.09196 14.2885C8.19692 14.3309 8.30934 14.3517 8.42251 14.3497C8.53569 14.3477 8.6473 14.3229 8.75069 14.2768C8.85409 14.2308 8.94714 14.1643 9.02431 14.0815L11.8002 11.3056L13.6175 13.124C13.7047 13.2112 13.8099 13.2782 13.9258 13.3203C14.0417 13.3624 14.1654 13.3785 14.2882 13.3676C14.4111 13.3566 14.53 13.3189 14.6366 13.257C14.7433 13.1951 14.835 13.1106 14.9054 13.0094C15.9692 11.4833 17.3549 10.2092 18.9648 9.27706Z" fill="white"/>
</svg>
