<svg width="24" height="24" viewBox="0 0 24 24" fill="none" xmlns="http://www.w3.org/2000/svg">
<g clip-path="url(#clip0_40000043_3332)">
<path d="M17.9998 12C14.6858 12 11.9998 14.686 11.9998 18C11.9998 21.314 14.6858 24 17.9998 24C21.3138 24 23.9998 21.314 23.9998 18C23.9998 14.686 21.3138 12 17.9998 12ZM21.3008 19.935C21.1478 21.015 20.1928 21.8 19.1018 21.8H18.8218V22.208C18.8218 22.645 18.4688 23 18.0318 23H18.0118C17.5758 23 17.2228 22.644 17.2228 22.208V21.8H17.0228C16.3118 21.8 15.6748 21.475 15.2528 20.967C14.8348 20.463 15.1898 19.701 15.8448 19.701C16.0718 19.701 16.3548 19.808 16.5088 19.975C16.6368 20.114 16.8208 20.201 17.0238 20.201H19.1268C19.4048 20.201 19.6588 20.014 19.7128 19.741C19.7758 19.423 19.5668 19.126 19.2618 19.064L16.4708 18.505C15.3588 18.282 14.5828 17.224 14.7458 16.066C14.8978 14.986 15.8538 14.2 16.9448 14.2H17.2248V13.8C17.2248 13.358 17.5828 13 18.0248 13C18.4668 13 18.8248 13.358 18.8248 13.8V14.2H19.0248C19.7358 14.2 20.3728 14.524 20.7948 15.033C21.2128 15.537 20.8578 16.299 20.2028 16.299C19.9758 16.299 19.6928 16.192 19.5388 16.025C19.4108 15.886 19.2268 15.799 19.0238 15.799H16.9218C16.6438 15.799 16.3898 15.985 16.3348 16.257C16.2708 16.575 16.4808 16.874 16.7838 16.935L19.5758 17.494C20.6878 17.716 21.4648 18.776 21.3008 19.933V19.935ZM23.9998 2V6C23.9998 6.552 23.5528 7 22.9998 7C22.4468 7 21.9998 6.552 21.9998 6V3.414L17.9378 7.476C16.5938 8.82 14.4068 8.821 13.0628 7.476L10.5238 4.938C9.95976 4.374 9.04076 4.374 8.47576 4.938L1.70676 11.707C1.51176 11.902 1.25576 12 0.999762 12C0.743762 12 0.487762 11.902 0.292762 11.707C-0.0982383 11.316 -0.0982383 10.684 0.292762 10.293L7.06176 3.524C8.40576 2.179 10.5938 2.179 11.9378 3.524L14.4768 6.062C15.0418 6.628 15.9608 6.625 16.5238 6.062L20.5858 2H17.9998C17.4468 2 16.9998 1.552 16.9998 1C16.9998 0.448 17.4468 0 17.9998 0H21.9998C23.1028 0 23.9998 0.897 23.9998 2ZM2.99976 15V23C2.99976 23.553 2.55176 24 1.99976 24C1.44776 24 0.999762 23.553 0.999762 23V15C0.999762 14.447 1.44776 14 1.99976 14C2.55176 14 2.99976 14.447 2.99976 15ZM7.99976 10.5V23C7.99976 23.553 7.55176 24 6.99976 24C6.44776 24 5.99976 23.553 5.99976 23V10.5C5.99976 9.948 6.44776 9.5 6.99976 9.5C7.55176 9.5 7.99976 9.948 7.99976 10.5ZM11.9998 13C11.4478 13 10.9998 12.552 10.9998 12V10C10.9998 9.448 11.4478 9 11.9998 9C12.5518 9 12.9998 9.448 12.9998 10V12C12.9998 12.552 12.5518 13 11.9998 13Z" fill="currentColor"/>
</g>
<defs>
<clipPath id="clip0_40000043_3332">
<rect width="24" height="24" fill="currentColor"/>
</clipPath>
</defs>
</svg>
