<svg width="16" height="16" viewBox="0 0 16 16" fill="none" xmlns="http://www.w3.org/2000/svg">
<path d="M14.2984 13.9524H13.3713C13.3713 13.9381 13.386 13.9238 13.386 13.9095C13.3713 12.9814 12.606 12.2389 11.6494 12.2531C10.9577 12.2531 10.3396 12.6672 10.0747 13.2812C9.61851 13.3384 9.19173 13.5811 8.92683 13.9524H7.48459C7.24912 13.5383 6.80762 13.2955 6.33669 13.2955H6.32197C6.05707 12.553 5.21822 12.1532 4.45295 12.4245C4.20276 12.5102 3.9673 12.6672 3.7907 12.8671L3.51108 12.8386C2.81939 12.8386 2.20129 13.2955 2.02469 13.9524H1.70093C1.49489 13.9524 1.33301 14.1094 1.33301 14.3094C1.33301 14.5093 1.49489 14.6663 1.70093 14.6663H14.2984C14.5045 14.6663 14.6663 14.5093 14.6663 14.3094C14.6663 14.1094 14.5045 13.9524 14.2984 13.9524Z" fill="white"/>
<path d="M11.3551 6.64135C11.1049 6.3986 10.7959 6.21297 10.4574 6.09874C10.4133 4.97067 10.0748 3.87116 9.45667 2.90017C9.41252 2.80021 8.64725 1.80066 8.26462 1.42939C8.11745 1.30088 7.88198 1.30088 7.73482 1.42939C6.35145 2.78593 5.60089 4.37094 5.54203 6.09874C5.20354 6.21297 4.89449 6.3986 4.64431 6.64135C3.71716 7.46955 3.64357 8.86893 4.49714 9.78281C4.55601 9.8542 4.64431 9.89704 4.74732 9.89704H4.76204C4.85034 9.89704 4.95336 9.86848 5.01223 9.79709L6.01296 8.91177C6.21899 9.42582 6.46918 9.9256 6.79295 10.3825C7.08728 10.8109 7.83783 10.8538 8.05858 10.8538H8.0733C8.38235 10.8538 8.91215 10.7966 9.16234 10.4539C9.50082 9.98272 9.78044 9.45438 9.98647 8.91177L10.9872 9.79709C11.0461 9.86848 11.1491 9.89704 11.2374 9.89704H11.2521C11.3551 9.89704 11.4434 9.8542 11.5023 9.78281C12.3559 8.86893 12.2823 7.46955 11.3551 6.64135ZM7.99972 6.85554C7.30803 6.84126 6.7488 6.29865 6.7488 5.62752C6.7488 4.95639 7.30803 4.41378 7.99972 4.41378C8.6914 4.41378 9.25064 4.95639 9.25064 5.62752C9.25064 6.29865 8.6914 6.84126 7.99972 6.85554Z" fill="white"/>
<path d="M8.36767 11.3682H7.63184V13.0388H8.36767V11.3682Z" fill="white"/>
<path d="M9.5747 11.0967H8.83887V12.6246H9.5747V11.0967Z" fill="white"/>
<path d="M7.16162 11.0967H6.42578V12.4961H7.16162V11.0967Z" fill="white"/>
</svg>
