<svg width="20" height="20" viewBox="0 0 20 20" fill="none" xmlns="http://www.w3.org/2000/svg">
<path d="M4.62836 19.3159C4.24503 19.3159 3.91266 19.1747 3.63128 18.8924C3.34975 18.6099 3.20898 18.2763 3.20898 17.8915V7.54155C3.20898 7.16169 3.34975 6.83016 3.63128 6.54697C3.91266 6.26377 4.24503 6.12217 4.62836 6.12217H7.31003C7.5103 6.12217 7.67864 6.19072 7.81503 6.3278C7.95141 6.46488 8.01961 6.63412 8.01961 6.83551C8.01961 7.0369 7.95141 7.20488 7.81503 7.33947C7.67864 7.47419 7.5103 7.54155 7.31003 7.54155H4.62836V17.8915H15.3721V7.54155H12.6538C12.4502 7.54155 12.2802 7.47301 12.1438 7.33592C12.0074 7.19884 11.9392 7.0296 11.9392 6.82822C11.9392 6.62683 12.0074 6.45884 12.1438 6.32426C12.2802 6.18954 12.4502 6.12217 12.6538 6.12217H15.3721C15.7568 6.12217 16.0904 6.26377 16.3727 6.54697C16.6552 6.83016 16.7965 7.16169 16.7965 7.54155V17.8915C16.7965 18.2763 16.6552 18.6099 16.3727 18.8924C16.0904 19.1747 15.7568 19.3159 15.3721 19.3159H4.62836ZM9.26961 3.42426L7.93357 4.7603C7.79204 4.90197 7.62565 4.97363 7.4344 4.9753C7.24329 4.97711 7.07579 4.90717 6.9319 4.76551C6.7951 4.6237 6.72669 4.4544 6.72669 4.25759C6.72669 4.06079 6.79794 3.89106 6.94044 3.74842L9.47711 1.18592C9.61989 1.0444 9.7876 0.973633 9.98023 0.973633C10.1729 0.973633 10.34 1.0444 10.4817 1.18592L13.0404 3.74988C13.1821 3.89238 13.2529 4.05947 13.2529 4.25113C13.2529 4.4428 13.1845 4.60836 13.0475 4.7478C12.9036 4.88711 12.7337 4.95676 12.5377 4.95676C12.3419 4.95676 12.1727 4.88599 12.03 4.74447L10.6892 3.42426V12.1905C10.6892 12.3909 10.6206 12.5593 10.4834 12.6957C10.3463 12.8321 10.177 12.9003 9.97565 12.9003C9.7744 12.9003 9.60641 12.8321 9.47169 12.6957C9.33697 12.5593 9.26961 12.3909 9.26961 12.1905V3.42426Z" fill="white"/>
</svg>
