<svg width="32" height="32" viewBox="0 0 32 32" fill="none" xmlns="http://www.w3.org/2000/svg">
<path d="M6.66667 29.3337C5.93333 29.3337 5.30556 29.0726 4.78333 28.5504C4.26111 28.0282 4 27.4004 4 26.6671V21.6004C4 21.2893 4.05556 20.9782 4.16667 20.6671C4.27778 20.3559 4.44444 20.0782 4.66667 19.8337L6.73333 17.5004C6.97778 17.2115 7.29444 17.0615 7.68333 17.0504C8.07222 17.0393 8.4 17.1671 8.66667 17.4337C8.91111 17.6782 9.04444 17.9782 9.06667 18.3337C9.08889 18.6893 8.97778 19.0004 8.73333 19.2671L6.9 21.3337H25.1L23.3333 19.3337C23.0889 19.0671 22.9778 18.7559 23 18.4004C23.0222 18.0448 23.1556 17.7448 23.4 17.5004C23.6667 17.2337 23.9944 17.1059 24.3833 17.1171C24.7722 17.1282 25.0889 17.2782 25.3333 17.5671L27.3333 19.8337C27.5556 20.0782 27.7222 20.3559 27.8333 20.6671C27.9444 20.9782 28 21.2893 28 21.6004V26.6671C28 27.4004 27.7389 28.0282 27.2167 28.5504C26.6944 29.0726 26.0667 29.3337 25.3333 29.3337H6.66667ZM14.1333 19.2004L9.5 14.5004C8.98889 13.9893 8.73333 13.3559 8.73333 12.6004C8.73333 11.8448 8.98889 11.2115 9.5 10.7004L16.0333 4.16706C16.5444 3.65595 17.1778 3.40039 17.9333 3.40039C18.6889 3.40039 19.3222 3.65595 19.8333 4.16706L24.5333 8.80039C25.0444 9.3115 25.3056 9.93928 25.3167 10.6837C25.3278 11.4282 25.0778 12.0559 24.5667 12.5671L17.9 19.2337C17.3889 19.7448 16.7611 19.9948 16.0167 19.9837C15.2722 19.9726 14.6444 19.7115 14.1333 19.2004ZM22.6667 10.6671L17.9333 6.00039L11.3333 12.6004L16.0667 17.2671L22.6667 10.6671Z" fill="currentColor"/>
</svg>
