<svg width="35" height="32" viewBox="0 0 35 32" fill="none" xmlns="http://www.w3.org/2000/svg">
<path fill-rule="evenodd" clip-rule="evenodd" d="M12.9334 2.5C14.8584 -0.833333 19.6718 -0.833333 21.5951 2.5L33.8534 23.7467C35.7768 27.08 33.3701 31.2467 29.5218 31.2467H5.00677C1.15844 31.2467 -1.24656 27.08 0.676775 23.7467L12.9318 2.5H12.9334ZM17.2651 11.245C17.5966 11.245 17.9146 11.3767 18.149 11.6111C18.3834 11.8455 18.5151 12.1635 18.5151 12.495V18.745C18.5151 19.0765 18.3834 19.3945 18.149 19.6289C17.9146 19.8633 17.5966 19.995 17.2651 19.995C16.9336 19.995 16.6156 19.8633 16.3812 19.6289C16.1468 19.3945 16.0151 19.0765 16.0151 18.745V12.495C16.0151 12.1635 16.1468 11.8455 16.3812 11.6111C16.6156 11.3767 16.9336 11.245 17.2651 11.245ZM17.2651 24.995C17.5966 24.995 17.9146 24.8633 18.149 24.6289C18.3834 24.3945 18.5151 24.0765 18.5151 23.745C18.5151 23.4135 18.3834 23.0955 18.149 22.8611C17.9146 22.6267 17.5966 22.495 17.2651 22.495C16.9336 22.495 16.6156 22.6267 16.3812 22.8611C16.1468 23.0955 16.0151 23.4135 16.0151 23.745C16.0151 24.0765 16.1468 24.3945 16.3812 24.6289C16.6156 24.8633 16.9336 24.995 17.2651 24.995Z" fill="#FF9900"/>
</svg>
