<svg width="114" height="56" viewBox="0 0 114 56" fill="none" xmlns="http://www.w3.org/2000/svg">
<path d="M46.738 15.582H43.0391V33.5299H46.738V15.582Z" fill="#E6ECFF"/>
<path d="M60.5899 18.2922C60.1107 17.4461 59.3769 16.7797 58.411 16.3005L58.2238 16.2107C57.2879 15.7839 56.1722 15.5742 54.8844 15.5742H48.3027V33.5221H52.0016V26.6934H54.8844C56.3445 26.6934 57.55 26.4388 58.5084 25.9221C59.4818 25.4055 60.1931 24.7241 60.6423 23.878C61.0467 23.1367 61.2713 22.358 61.3237 21.5269V21.1675C61.3312 20.1042 61.0841 19.1458 60.5899 18.2997V18.2922ZM56.8536 23.0169C56.4044 23.4362 55.7005 23.6609 54.7346 23.6609H52.0091V18.6441H55.079C55.8578 18.704 56.4418 18.9137 56.8461 19.2731C57.3029 19.6849 57.5425 20.3139 57.5425 21.16C57.5425 21.9612 57.3104 22.5752 56.8611 23.0094L56.8536 23.0169Z" fill="#E6ECFF"/>
<path d="M70.9077 15.3271C72.5924 15.3271 74.1199 15.724 75.4976 16.5102C76.8903 17.2964 77.991 18.3971 78.7922 19.8048C79.6083 21.1975 80.0201 22.7624 80.0201 24.507V24.8364C79.9677 26.3564 79.6158 27.7491 78.9419 28.9996L78.7922 29.2691C77.991 30.6543 76.8978 31.7475 75.4976 32.5337C74.1049 33.3199 72.5699 33.7168 70.9077 33.7168C69.3503 33.7168 67.9052 33.3723 66.5798 32.676L66.3178 32.5337C65.0074 31.7925 63.9592 30.7891 63.158 29.5237L63.0008 29.2691C62.1846 27.8614 61.7803 26.2741 61.7803 24.5145C61.7803 22.7549 62.1846 21.1975 63.0008 19.8122C63.8169 18.4046 64.9251 17.3114 66.3178 16.5177C67.7105 15.7315 69.2454 15.3346 70.9077 15.3346V15.3271ZM70.9077 18.6966C69.8594 18.6966 68.931 18.9287 68.1148 19.4004C67.3211 19.8647 66.6996 20.546 66.2504 21.4296C65.8011 22.2981 65.5765 23.3239 65.5765 24.4995V24.9338C65.6364 25.8622 65.8311 26.6934 66.168 27.4272L66.2504 27.5919C66.6996 28.4829 67.3211 29.1643 68.1148 29.651C68.931 30.1227 69.8594 30.3548 70.9077 30.3548C71.956 30.3548 72.8769 30.1227 73.6781 29.651C74.4718 29.1643 75.0933 28.4829 75.5425 27.5919C75.9918 26.7083 76.2164 25.6751 76.2164 24.492C76.2164 23.3838 76.0143 22.4179 75.6249 21.5868L75.5425 21.4221C75.1232 20.591 74.5467 19.9395 73.8204 19.4828L73.6706 19.3929C72.8769 18.9287 71.956 18.6891 70.9002 18.6891L70.9077 18.6966ZM68.3918 29.8906C68.3918 29.8906 68.4443 29.9131 68.4667 29.928C68.3844 29.8906 68.3095 29.8532 68.2271 29.8082L68.3844 29.8906H68.3918ZM73.7156 29.7259L73.8653 29.6285C73.8653 29.6285 73.9177 29.5911 73.9477 29.5761C73.8728 29.6285 73.7979 29.6809 73.7156 29.7259ZM66.4526 28.1235C66.4526 28.1235 66.49 28.1759 66.505 28.2059C66.4526 28.131 66.4001 28.0486 66.3552 27.9663L66.4526 28.1235ZM75.6099 27.6368L75.6923 27.4646C75.6923 27.4646 75.7222 27.3972 75.7372 27.3598C75.6998 27.4496 75.6549 27.5395 75.6099 27.6293V27.6368ZM61.8551 24.2C61.8551 24.2749 61.8551 24.3572 61.8551 24.4321C61.8551 24.3497 61.8551 24.2599 61.8551 24.1775V24.2ZM63.2104 19.5951C63.158 19.6775 63.1131 19.7523 63.0681 19.8347L63.2254 19.5801V19.5951H63.2104ZM74.1498 19.6176C74.1948 19.655 74.2397 19.685 74.2846 19.7224C74.1798 19.64 74.0675 19.5577 73.9552 19.4828C74.0225 19.5277 74.0824 19.5726 74.1498 19.6176ZM73.9027 19.4453C73.8428 19.4079 73.7755 19.363 73.7156 19.3255C73.7829 19.363 73.8428 19.4004 73.9027 19.4453ZM68.5491 19.0859C68.5491 19.0859 68.5716 19.0785 68.579 19.071C68.5716 19.071 68.5566 19.0785 68.5491 19.0859Z" fill="#E6ECFF"/>
<path d="M33.6943 11.1494H22.4629V22.3809H33.6943V11.1494Z" fill="#E6ECFF"/>
<path d="M33.6943 33.5371V44.7686H22.4629C16.2556 44.7686 11.2314 39.7369 11.2314 33.5371V22.3057H22.4629V33.5371H33.6943Z" fill="#E6ECFF"/>
<path d="M102.61 28.6182H98.8662V32.362H102.61V28.6182Z" fill="#E6ECFF"/>
<path d="M39.3101 27.9141H33.6943V33.5298H39.3101V27.9141Z" fill="#E6ECFF"/>
<path d="M91.8057 29.5839C91.8057 29.5839 91.7308 29.6139 91.6933 29.6214C91.6035 29.6588 91.5136 29.6888 91.4238 29.7112C91.3489 29.7337 91.274 29.7561 91.1917 29.7711C91.1018 29.7936 91.012 29.816 90.9221 29.831C90.5852 29.8984 90.2557 29.9284 89.9038 29.9284C89.7391 29.9284 89.5743 29.9284 89.4171 29.9059C89.3422 29.9059 89.2748 29.8909 89.2 29.876C89.1026 29.876 88.9978 29.8535 88.9005 29.831C88.7881 29.8086 88.6758 29.7861 88.5635 29.7561C86.8488 29.3069 85.4337 28.034 84.7897 26.4017C84.7373 26.2594 84.6924 26.1246 84.6475 25.9824C84.4977 25.4957 84.4228 24.9865 84.4228 24.4549C84.4228 21.9391 86.1225 19.8275 88.4287 19.1836C88.4737 19.1836 88.5261 19.1611 88.571 19.1537C88.6833 19.1162 88.8031 19.0938 88.9229 19.0713C89.0577 19.0488 89.1925 19.0264 89.3272 19.0114H89.3422C89.5294 18.9889 89.7166 18.9814 89.9038 18.9814C90.091 18.9814 90.2782 18.9814 90.4654 19.0114H90.4803C90.6151 19.0264 90.7499 19.0488 90.8847 19.0713C91.0045 19.0938 91.1243 19.1237 91.2366 19.1537C91.2815 19.1537 91.3339 19.1761 91.3789 19.1836C93.6925 19.8201 95.3922 21.9391 95.3922 24.4549H99.1136C99.1136 19.4082 94.9579 15.2676 89.9188 15.2676C84.8796 15.2676 80.7314 19.4157 80.7314 24.4549C80.7314 29.4941 84.8796 33.6422 89.9188 33.6422C93.3855 33.6422 96.5678 31.688 98.1327 28.5806L94.8082 26.9034C94.1942 28.1313 93.1235 29.0972 91.8206 29.5764L91.8057 29.5839Z" fill="#E6ECFF"/>
</svg>
