<svg width="21" height="21" viewBox="0 0 21 21" fill="none" xmlns="http://www.w3.org/2000/svg">
<path d="M10.5 12.975L12.425 14.125C12.6083 14.2417 12.7875 14.2375 12.9625 14.1125C13.1375 13.9875 13.2 13.8167 13.15 13.6L12.65 11.425L14.35 9.95C14.5167 9.8 14.5667 9.62083 14.5 9.4125C14.4333 9.20417 14.2833 9.09167 14.05 9.075L11.825 8.9L10.95 6.825C10.8667 6.625 10.7167 6.525 10.5 6.525C10.2833 6.525 10.1333 6.625 10.05 6.825L9.175 8.9L6.95 9.075C6.71667 9.09167 6.56667 9.20417 6.5 9.4125C6.43333 9.62083 6.48333 9.8 6.65 9.95L8.35 11.425L7.85 13.6C7.8 13.8167 7.8625 13.9875 8.0375 14.1125C8.2125 14.2375 8.39167 14.2417 8.575 14.125L10.5 12.975ZM7.15 18.5H4.5C3.95 18.5 3.47917 18.3042 3.0875 17.9125C2.69583 17.5208 2.5 17.05 2.5 16.5V13.85L0.575 11.9C0.391667 11.7 0.25 11.4792 0.15 11.2375C0.05 10.9958 0 10.75 0 10.5C0 10.25 0.05 10.0042 0.15 9.7625C0.25 9.52083 0.391667 9.3 0.575 9.1L2.5 7.15V4.5C2.5 3.95 2.69583 3.47917 3.0875 3.0875C3.47917 2.69583 3.95 2.5 4.5 2.5H7.15L9.1 0.575C9.3 0.391667 9.52083 0.25 9.7625 0.15C10.0042 0.05 10.25 0 10.5 0C10.75 0 10.9958 0.05 11.2375 0.15C11.4792 0.25 11.7 0.391667 11.9 0.575L13.85 2.5H16.5C17.05 2.5 17.5208 2.69583 17.9125 3.0875C18.3042 3.47917 18.5 3.95 18.5 4.5V7.15L20.425 9.1C20.6083 9.3 20.75 9.52083 20.85 9.7625C20.95 10.0042 21 10.25 21 10.5C21 10.75 20.95 10.9958 20.85 11.2375C20.75 11.4792 20.6083 11.7 20.425 11.9L18.5 13.85V16.5C18.5 17.05 18.3042 17.5208 17.9125 17.9125C17.5208 18.3042 17.05 18.5 16.5 18.5H13.85L11.9 20.425C11.7 20.6083 11.4792 20.75 11.2375 20.85C10.9958 20.95 10.75 21 10.5 21C10.25 21 10.0042 20.95 9.7625 20.85C9.52083 20.75 9.3 20.6083 9.1 20.425L7.15 18.5Z" fill="white"/>
</svg>
